HIERARCHY
ROOT Hips
{
	OFFSET 0.00000 0.00000 0.00000
	CHANNELS 6 Xposition Yposition Zposition Zrotation Yrotation Xrotation 
	JOINT RightUpLegDummy
	{
		OFFSET 0 0 0
		CHANNELS 3 Zrotation Yrotation Xrotation
		JOINT RightUpLeg
		{
			OFFSET -3.52197 -3.41223 0.04002
			CHANNELS 3 Zrotation Yrotation Xrotation
			JOINT RightLeg
			{
				OFFSET 0.00006 -17.42390 1.60435
				CHANNELS 3 Zrotation Yrotation Xrotation
				JOINT RightFoot
				{
					OFFSET 0.06153 -16.50078 -1.63901
					CHANNELS 3 Zrotation Yrotation Xrotation
					JOINT RightToes
					{
						OFFSET 0.00298 -1.73825 3.34613
						CHANNELS 3 Zrotation Yrotation Xrotation
						End Site
						{
							OFFSET 0.00480 -0.05416 3.85043
						}
					}
				}
			}
		}
	}
	JOINT SpineDummy
	{
		OFFSET 0 0 0
		CHANNELS 3 Zrotation Yrotation Xrotation
		JOINT Spine
		{
			OFFSET 0.00000 4.68130 0.00000
			CHANNELS 3 Zrotation Yrotation Xrotation
			JOINT Spine1
			{
				OFFSET -0.00000 10.10138 0.05002
				CHANNELS 3 Zrotation Yrotation Xrotation
				JOINT HEadDummy
				{
					OFFSET 0 0 0
					CHANNELS 3 Zrotation Yrotation Xrotation
					JOINT Head
					{
						OFFSET -0.00000 3.43865 0.00438
						CHANNELS 3 Zrotation Yrotation Xrotation
						End Site
						{
							OFFSET -0.11417 5.02924 0.98962
						}
					}
				}
				JOINT LeftShoulder1Dummy
				{
					OFFSET 0 0 0
					CHANNELS 3 Zrotation Yrotation Xrotation
					JOINT LeftShoulder1
					{
						OFFSET 3.53937 -0.14262 -0.08662
						CHANNELS 3 Zrotation Yrotation Xrotation
						JOINT LeftArm
						{
							OFFSET 4.04833 -0.00133 0.12681
							CHANNELS 3 Zrotation Yrotation Xrotation
							JOINT LeftForeArm
							{
								OFFSET 10.33880 -0.01036 -0.55515
								CHANNELS 3 Zrotation Yrotation Xrotation
								JOINT LeftHand
								{
									OFFSET 8.69677 0.07543 0.40060
									CHANNELS 3 Zrotation Yrotation Xrotation
									End Site
									{
										OFFSET 5.28377 -0.21905 0.59205
									}
								}
							}
						}
					}
				}
				JOINT RightShoulderDummy
				{
					OFFSET 0 0 0
					CHANNELS 3 Zrotation Yrotation Xrotation
					JOINT RightShoulder
					{
						OFFSET -3.53937 -0.14262 -0.08660
						CHANNELS 3 Zrotation Yrotation Xrotation
						JOINT RightArm
						{
							OFFSET -4.04833 -0.00133 0.12683
							CHANNELS 3 Zrotation Yrotation Xrotation
							JOINT RightForeArm
							{
								OFFSET -10.37987 -0.01039 -0.55511
								CHANNELS 3 Zrotation Yrotation Xrotation
								JOINT RightHand
								{
									OFFSET -8.67398 0.07538 0.40058
									CHANNELS 3 Zrotation Yrotation Xrotation
									End Site
									{
										OFFSET -5.24810 -0.21916 0.59204
									}
								}
							}
						}
					}
				}
			}
		}
	}
	JOINT LeftUpLegDummy
	{
		OFFSET 0 0 0
		CHANNELS 3 Zrotation Yrotation Xrotation
		JOINT LeftUpLeg
		{
			OFFSET 3.52197 -3.41223 0.04002
			CHANNELS 3 Zrotation Yrotation Xrotation
			JOINT LeftLeg
			{
				OFFSET -0.00012 -17.42399 1.60337
				CHANNELS 3 Zrotation Yrotation Xrotation
				JOINT LeftFoot
				{
					OFFSET -0.09972 -16.50070 -1.63802
					CHANNELS 3 Zrotation Yrotation Xrotation
					JOINT LeftToes
					{
						OFFSET -0.01575 -1.73823 3.34611
						CHANNELS 3 Zrotation Yrotation Xrotation
						End Site
						{
							OFFSET 0.03150 -0.01868 3.85031
						}
					}
				}
			}
		}
	}
}
MOTION
Frames: 9
Frame Time: 0.033333
32.3025 39.2463 70.9499 -179.7750 2.3740 175.2380 0.0000 0.0000 0.0000 2.8967 -1.6557 -2.5377 -2.1608 -6.9592 14.2239 -2.6786 0.0549 -7.8712 0.0000 -0.0000 0.0000 0.0000 0.0000 0.0000 0.4487 -0.4298 7.7346 4.0255 -1.2879 2.3312 -0.0000 0.0000 -0.0000 0.8416 5.0880 -6.0725 -0.0000 0.0000 -0.0000 -34.1333 -2.7493 2.5115 -48.1971 -17.7363 -11.4096 -12.7569 5.2824 41.4864 16.8791 -5.0083 -1.4783 -0.0000 0.0000 -0.0000 34.8042 5.1559 3.5353 36.9809 10.2316 -14.5172 11.4417 -0.2528 25.3810 -12.4289 2.3875 -0.8139 0.0000 0.0000 0.0000 3.1547 5.4462 -2.6482 2.0289 3.3801 21.0289 0.8327 0.0786 -11.9718 0.0000 0.0000 -0.0000
32.3351 39.2669 70.9282 -179.8280 2.3672 175.2810 0.0000 0.0000 0.0000 2.9152 -1.6108 -2.4245 -2.1904 -7.0084 13.9695 -2.6865 0.0551 -7.7756 0.0000 -0.0000 0.0000 0.0000 0.0000 0.0000 0.5050 -0.3005 7.5812 3.9816 -1.1491 2.4960 -0.0000 0.0000 -0.0000 0.9383 4.9156 -6.2701 -0.0000 0.0000 -0.0000 -34.2443 -2.8051 2.5409 -48.0592 -17.7400 -11.3235 -12.7805 5.1374 41.2222 16.4608 -4.9984 -1.4388 -0.0000 0.0000 -0.0000 34.5971 5.1078 3.4976 37.0872 10.1367 -14.7576 11.3741 -0.5628 25.5145 -12.6797 2.0045 -0.7919 0.0000 0.0000 0.0000 3.0652 5.7003 -2.6600 1.8096 2.9719 20.7875 0.7352 0.0849 -12.7583 0.0000 0.0000 -0.0000
32.3755 39.3215 70.8715 -179.9630 1.9021 175.4510 0.0000 0.0000 0.0000 2.7937 -1.6960 -2.1737 -2.1773 -7.3785 13.3241 -2.7149 0.0624 -7.5327 0.0000 -0.0000 0.0000 0.0000 0.0000 0.0000 0.5056 -0.3023 7.1878 3.9346 -1.1485 2.6513 -0.0000 0.0000 -0.0000 1.1818 4.8894 -6.3936 -0.0000 0.0000 -0.0000 -34.3575 -2.8090 2.5497 -47.8440 -17.6099 -11.3732 -12.7544 4.5485 40.8889 15.7715 -5.0726 -1.3855 -0.0000 0.0000 -0.0000 34.4279 5.0770 3.4703 37.0077 9.8433 -15.1764 11.2801 -1.2714 25.7703 -12.8072 1.6317 -0.7618 0.0000 0.0000 0.0000 2.7012 5.7487 -2.6213 1.5653 2.6052 19.7147 0.5895 0.0966 -13.8698 0.0000 0.0000 -0.0000
32.3943 39.3917 70.8031 179.9630 0.9925 175.7550 0.0000 0.0000 0.0000 2.6605 -1.8230 -1.8992 -2.1707 -8.1419 12.4288 -2.7163 0.0724 -7.1696 0.0000 -0.0000 0.0000 0.0000 0.0000 0.0000 0.5522 -0.5398 6.6965 3.8267 -1.3735 2.5847 -0.0000 0.0000 -0.0000 1.4215 5.1842 -6.2541 -0.0000 0.0000 -0.0000 -34.3011 -2.7093 2.5060 -47.6368 -17.3663 -11.7471 -12.6413 4.4427 40.6273 15.3004 -5.2083 -1.3593 -0.0000 0.0000 -0.0000 34.4859 5.1036 3.4861 36.6809 9.3750 -15.6368 11.1828 -2.0728 26.1078 -12.6971 1.6233 -0.7541 0.0000 0.0000 0.0000 2.2419 5.3872 -2.5462 1.4150 2.4811 17.9550 0.9152 0.1008 -13.7480 0.0000 0.0000 -0.0000
32.4169 39.4530 70.7503 -179.9250 0.2059 176.0970 0.0000 0.0000 0.0000 2.8346 -1.6843 -1.6772 -2.3148 -9.0364 11.4944 -2.6845 0.0829 -6.7418 0.0000 -0.0000 0.0000 0.0000 0.0000 0.0000 0.6266 -0.6790 6.2592 3.8284 -1.5164 2.4538 -0.0000 0.0000 -0.0000 1.6035 5.0331 -6.0194 -0.0000 0.0000 -0.0000 -34.1269 -2.6066 2.4538 -47.4060 -17.2496 -12.4163 -12.4159 4.9090 40.7027 15.2762 -5.3568 -1.3757 -0.0000 0.0000 -0.0000 34.6025 5.1285 3.5064 36.4008 8.7625 -16.0170 11.0853 -2.4396 26.2964 -12.6672 1.6978 -0.7599 0.0000 0.0000 0.0000 2.1135 5.0479 -2.4507 1.2016 2.1728 16.2611 1.5518 0.0825 -12.0974 0.0000 0.0000 -0.0000
32.3953 39.5015 70.6914 -179.9310 -0.7912 176.2000 0.0000 0.0000 0.0000 2.7380 -1.7851 -1.3010 -2.3806 -9.8885 10.8320 -2.6071 0.0854 -6.5318 0.0000 -0.0000 0.0000 0.0000 0.0000 0.0000 0.5842 -0.8268 5.9297 3.8539 -1.6842 2.6213 -0.0000 0.0000 -0.0000 1.7798 4.7054 -6.0756 -0.0000 0.0000 -0.0000 -34.0359 -2.5977 2.4446 -47.0541 -17.4013 -13.2577 -12.0825 5.3268 41.2264 15.5473 -5.5491 -1.4256 -0.0000 0.0000 -0.0000 34.5666 5.1045 3.4935 36.3606 8.1104 -16.2758 11.0086 -2.3025 26.0998 -12.8209 1.5217 -0.7511 0.0000 0.0000 0.0000 1.9628 4.0641 -2.0780 1.0013 1.8375 14.9070 1.6396 0.0451 -10.1559 0.0000 0.0000 -0.0000
32.3701 39.5527 70.6026 179.9340 -1.5044 176.2430 0.0000 0.0000 0.0000 2.5425 -1.8965 -0.8543 -2.4492 -10.4587 10.2304 -2.5332 0.0855 -6.4059 0.0000 -0.0000 0.0000 0.0000 0.0000 0.0000 0.2955 -0.7495 5.3129 4.0285 -1.6661 3.2508 -0.0000 0.0000 -0.0000 1.9234 4.3050 -6.2395 -0.0000 0.0000 -0.0000 -34.0869 -2.6584 2.4721 -46.5273 -17.6305 -14.1813 -11.6989 5.2782 41.9189 15.7927 -5.7489 -1.4749 -0.0000 0.0000 -0.0000 34.4590 5.0717 3.4708 36.4175 7.6081 -16.5217 10.9452 -2.2129 25.7274 -12.9093 1.2949 -0.7329 0.0000 0.0000 0.0000 1.8811 3.6794 -1.4502 0.6759 1.2074 13.6336 0.9156 0.0369 -9.1247 0.0000 0.0000 -0.0000
32.3436 39.6051 70.5146 179.7080 -2.0723 176.2820 0.0000 0.0000 0.0000 2.3186 -1.9385 -0.4577 -2.6338 -10.9535 9.7300 -2.4151 0.0832 -6.2919 0.0000 -0.0000 0.0000 0.0000 0.0000 0.0000 -0.1058 -0.6124 4.7312 4.1525 -1.5684 3.7993 -0.0000 0.0000 -0.0000 2.0938 4.0181 -6.2823 -0.0000 0.0000 -0.0000 -34.1332 -2.7136 2.4971 -45.8765 -17.6507 -15.1106 -11.3524 5.2722 42.3394 15.8383 -5.7842 -1.4840 -0.0000 0.0000 -0.0000 34.4703 5.0814 3.4758 36.4447 7.3028 -16.8378 10.8564 -2.4579 25.5815 -12.7696 1.3842 -0.7339 0.0000 0.0000 0.0000 1.7597 3.8255 -0.7435 0.3023 0.5463 12.2918 0.2159 0.0473 -8.7160 0.0000 0.0000 -0.0000
32.2992 39.6505 70.4622 179.5630 -2.6423 176.2750 0.0000 0.0000 0.0000 2.1841 -1.8952 -0.1093 -2.8917 -11.5120 9.3160 -2.2679 0.0806 -6.1273 0.0000 -0.0000 0.0000 0.0000 0.0000 0.0000 -0.2318 -0.5270 4.5807 3.9880 -1.4439 3.8954 -0.0000 0.0000 -0.0000 2.2653 3.8833 -6.2402 -0.0000 0.0000 -0.0000 -34.0643 -2.7349 2.5013 -45.2319 -17.4423 -15.9723 -11.0637 5.2705 42.5526 15.7633 -5.5905 -1.4516 -0.0000 0.0000 -0.0000 34.5346 5.1029 3.4901 36.5990 7.0347 -17.1391 10.7396 -2.6235 25.6208 -12.5432 1.6400 -0.7464 0.0000 0.0000 0.0000 1.6148 3.7684 -0.1763 0.0357 0.2115 11.1672 0.2919 0.0408 -8.1916 0.0000 0.0000 -0.0000
